<?xml version="1.0" encoding="utf-8"?>
<!-- Generator: Adobe Illustrator 28.3.0, SVG Export Plug-In . SVG Version: 6.00 Build 0)  -->
<svg version="1.1" id="Layer_1" xmlns="http://www.w3.org/2000/svg" xmlns:xlink="http://www.w3.org/1999/xlink" x="0px" y="0px"
	 viewBox="0 0 703.2 703.2" style="enable-background:new 0 0 703.2 703.2;" xml:space="preserve">
<style type="text/css">
	.st0{fill-rule:evenodd;clip-rule:evenodd;fill:#00FFFF;}
	.st1{fill:#00FFFF;stroke:#0000FF;stroke-width:17;stroke-miterlimit:10;}
</style>
<path class="st0" d="M351.6,0c97.1,0,185,39.3,248.6,103s103,151.5,103,248.6s-39.3,185-103,248.6s-151.5,103-248.6,103
	s-185-39.3-248.6-103S0,448.7,0,351.6s39.3-185,103-248.6S254.5,0,351.6,0L351.6,0z M574.8,128.4C517.7,71.3,438.8,36,351.6,36
	s-166.1,35.3-223.2,92.4C71.3,185.6,36,264.5,36,351.6s35.3,166.1,92.4,223.2s136,92.4,223.2,92.4s166.1-35.3,223.2-92.4
	c57.1-57.1,92.4-136,92.4-223.2S631.9,185.6,574.8,128.4z"/>
<polygon class="st1" points="237.1,156.2 383.1,156.2 383.1,432.7 205.7,432.7 205.7,191.9 "/>
<polygon class="st1" points="351.5,270.5 497.5,270.5 497.5,547 320.1,547 320.1,306.3 "/>
</svg>
