<?xml version="1.0" encoding="utf-8"?>
<!-- Generator: Adobe Illustrator 28.3.0, SVG Export Plug-In . SVG Version: 6.00 Build 0)  -->
<svg version="1.1" id="Layer_1" xmlns="http://www.w3.org/2000/svg" xmlns:xlink="http://www.w3.org/1999/xlink" x="0px" y="0px"
	 viewBox="0 0 703.2 703.2" style="enable-background:new 0 0 703.2 703.2;" xml:space="preserve">
<style type="text/css">
	.st0{fill-rule:evenodd;clip-rule:evenodd;fill:#00FFFF;}
	.st1{fill-rule:evenodd;clip-rule:evenodd;fill:#1B1464;}
	.st2{fill:#00FFFF;}
</style>
<path class="st0" d="M351.6,0c97.1,0,185,39.4,248.6,103s103,151.5,103,248.6s-39.4,185-103,248.6s-151.5,103-248.6,103
	s-185-39.4-248.6-103S0,448.7,0,351.6s39.4-185,103-248.6S254.5,0,351.6,0L351.6,0z"/>
<path class="st1" d="M574.8,128.4C517.6,71.3,438.8,36,351.6,36s-166.1,35.3-223.2,92.4C71.3,185.6,36,264.4,36,351.6
	s35.3,166.1,92.4,223.2s136,92.4,223.2,92.4s166.1-35.3,223.2-92.4c57.1-57.1,92.4-136,92.4-223.2S631.9,185.5,574.8,128.4z"/>
<g>
	<path class="st2" d="M466.2,495c0,12.9-9.1,23.7-21.2,26.4V238.8h-24.4v283.3h-27.1V238.8h-24.4v283.3H342V238.8h-24.4v283.3h-27.1
		V238.8h-24.4v282.8c-16.5-2.7-29.1-17.1-29.1-34.3V217.8h-26.5v269.5c0,33.8,27.5,61.3,61.3,61.3H439c29.6,0,53.6-24.1,53.6-53.6
		V217.7l-26.5,0.2V495z"/>
	<path class="st2" d="M396.9,188.3v-33.7h-90.5v33.7H194.4v24.4h314.4v-24.4H396.9z M372.5,179v9.4h-41.7V179H372.5z"/>
</g>
</svg>
